<?xml version="1.0" encoding="UTF-8" standalone="no"?>
<!-- Created with Inkscape (http://www.inkscape.org/) -->

<svg
   width="210mm"
   height="297mm"
   viewBox="0 0 210 297"
   version="1.1"
   id="svg1"
   inkscape:version="1.3 (0e150ed6c4, 2023-07-21)"
   sodipodi:docname="forca.svg"
   xml:space="preserve"
   xmlns:inkscape="http://www.inkscape.org/namespaces/inkscape"
   xmlns:sodipodi="http://sodipodi.sourceforge.net/DTD/sodipodi-0.dtd"
   xmlns="http://www.w3.org/2000/svg"
   xmlns:svg="http://www.w3.org/2000/svg"><style
     id="style49">.man {   }&#10;</style><sodipodi:namedview
     id="namedview1"
     pagecolor="#505050"
     bordercolor="#ffffff"
     borderopacity="1"
     inkscape:showpageshadow="0"
     inkscape:pageopacity="0"
     inkscape:pagecheckerboard="1"
     inkscape:deskcolor="#d1d1d1"
     inkscape:document-units="mm"
     inkscape:zoom="0.13162353"
     inkscape:cx="672.37219"
     inkscape:cy="-322.8906"
     inkscape:window-width="1440"
     inkscape:window-height="829"
     inkscape:window-x="-8"
     inkscape:window-y="-8"
     inkscape:window-maximized="1"
     inkscape:current-layer="layer1" /><defs
     id="defs1" /><g
     inkscape:label="Camada 1"
     inkscape:groupmode="layer"
     id="layer1"><rect
       style="fill:#000000;fill-rule:evenodd;stroke-width:21.4786;stroke-linecap:round;stroke-linejoin:round"
       id="rect1"
       width="8.4666662"
       height="169.33333"
       x="-99.502541"
       y="-207.29695" /><rect
       style="fill:#000000;fill-rule:evenodd;stroke-width:18.601;stroke-linecap:round;stroke-linejoin:round"
       id="rect2"
       width="8.4666662"
       height="127"
       x="-207.29695"
       y="-19.959389"
       transform="rotate(90)"
       rx="2.5"
       ry="4" /><rect
       style="fill:#000000;fill-rule:evenodd;stroke-width:10.7393;stroke-linecap:round;stroke-linejoin:round"
       id="rect3"
       width="8.4666662"
       height="42.333332"
       x="-194.20692"
       y="-98.955246"
       transform="rotate(45)" /><rect
       style="fill:#000000;fill-rule:evenodd;stroke-width:8.00873;stroke-linecap:round;stroke-linejoin:round"
       id="rect4"
       width="8.4666662"
       height="23.542797"
       x="-46.430286"
       y="83.49781"
       transform="rotate(90)"
       rx="2.5"
       ry="2.5" /><rect
       style="fill:#000000;fill-rule:evenodd;stroke-width:8.46581;stroke-linecap:round;stroke-linejoin:round"
       id="rect5"
       width="8.4666662"
       height="26.306757"
       x="11.771653"
       y="175.28749"
       transform="scale(-1)" /><rect
       style="fill:#000000;fill-rule:evenodd;stroke-width:21.4786;stroke-linecap:round;stroke-linejoin:round"
       id="rect13"
       width="8.4666662"
       height="169.33333"
       x="103.53719"
       y="-200.46477"
       inkscape:export-filename="forca.svg"
       inkscape:export-xdpi="96.0195"
       inkscape:export-ydpi="96.0195" /><rect
       style="fill:#000000;fill-rule:evenodd;stroke-width:18.601;stroke-linecap:round;stroke-linejoin:round"
       id="rect14"
       width="8.4666662"
       height="127"
       x="-200.46477"
       y="-222.99913"
       transform="rotate(90)"
       rx="2.5"
       ry="4" /><rect
       style="fill:#000000;fill-rule:evenodd;stroke-width:10.7393;stroke-linecap:round;stroke-linejoin:round"
       id="rect15"
       width="8.4666662"
       height="42.333332"
       x="-45.805069"
       y="-237.69495"
       transform="rotate(45)" /><rect
       style="fill:#000000;fill-rule:evenodd;stroke-width:8.00873;stroke-linecap:round;stroke-linejoin:round"
       id="rect16"
       width="8.4666662"
       height="23.542797"
       x="-39.598099"
       y="-119.54192"
       transform="rotate(90)"
       rx="2.5"
       ry="2.5" /><rect
       style="fill:#000000;fill-rule:evenodd;stroke-width:8.46581;stroke-linecap:round;stroke-linejoin:round"
       id="rect17"
       width="8.4666662"
       height="26.306757"
       x="-191.26808"
       y="168.45531"
       transform="scale(-1)" /><rect
       style="fill:none;fill-rule:evenodd;stroke-width:14.1817;stroke-linecap:round;stroke-linejoin:round"
       id="rect12"
       width="56.010967"
       height="100.27126"
       x="159.49916"
       y="-173.89969"
       inkscape:export-filename="sticker.svg"
       inkscape:export-xdpi="96.0195"
       inkscape:export-ydpi="96.0195" /><path
       id="head"
       d="m 187.03474,-173.89964 a 14.863256,14.863256 0 0 0 -14.86331,14.86333 14.863256,14.863256 0 0 0 14.86331,14.86331 14.863256,14.863256 0 0 0 14.86331,-14.86331 14.863256,14.863256 0 0 0 -14.86331,-14.86333 z m 0,5.44434 a 9.4188377,9.4188377 0 0 1 9.41858,9.41899 9.4188377,9.4188377 0 0 1 -9.41858,9.41858 9.4188377,9.4188377 0 0 1 -9.41898,-9.41858 9.4188377,9.4188377 0 0 1 9.41898,-9.41899 z"
       class="man" /><rect
       style="fill:#000000;fill-rule:evenodd;stroke-width:12.0069;stroke-linecap:round;stroke-linejoin:round"
       id="body"
       width="8.4666662"
       height="52.916668"
       x="-191.26805"
       y="96.171951"
       transform="scale(-1)"
       ry="4.2333331"
       rx="4.2333331"
       class="man" /><rect
       style="fill:#000000;fill-rule:evenodd;stroke-width:10.3982;stroke-linecap:round;stroke-linejoin:round"
       id="right_arm"
       width="8.4666662"
       height="39.6875"
       x="-39.758469"
       y="193.53316"
       transform="rotate(-135)"
       ry="4.2333331"
       class="man" /><rect
       style="fill:#000000;fill-rule:evenodd;stroke-width:10.3982;stroke-linecap:round;stroke-linejoin:round"
       id="left_arm"
       width="8.4666662"
       height="39.6875"
       x="224.4064"
       y="-71.32692"
       transform="matrix(0.70710678,-0.70710678,-0.70710678,-0.70710678,0,0)"
       ry="4.2333331"
       class="man" /><rect
       style="fill:#000000;fill-rule:evenodd;stroke-width:10.3982;stroke-linecap:round;stroke-linejoin:round"
       id="right_leg"
       width="8.4666662"
       height="39.6875"
       x="-63.579666"
       y="169.71198"
       transform="rotate(-135)"
       ry="4.2333331"
       class="man" /><rect
       style="fill:#000000;fill-rule:evenodd;stroke-width:10.3982;stroke-linecap:round;stroke-linejoin:round"
       id="left_leg"
       width="8.4666662"
       height="39.6875"
       x="200.93282"
       y="-94.800491"
       transform="matrix(0.70710678,-0.70710678,-0.70710678,-0.70710678,0,0)"
       ry="4.2333331"
       class="man" /><path
       id="rect6"
       style="fill:#0000ff;fill-rule:evenodd;stroke-width:21.4786;stroke-linecap:round;stroke-linejoin:round"
       d="m -299.49929,-198.83029 c -2.216,0 -3.99976,1.11512 -3.99976,2.50011 v 3.46646 c 0,1.38499 1.78376,2.5001 3.99976,2.5001 h 3.53828 v 152.399997 h -5.03793 c -1.385,0 -2.50011,1.11511 -2.50011,2.50011 v 3.46645 c 0,1.385 1.11511,2.50011 2.50011,2.50011 h 18.54253 c 1.385,0 2.50011,-1.11511 2.50011,-2.50011 v -3.46645 c 0,-1.385 -1.11511,-2.50011 -2.50011,-2.50011 h -5.03793 V -163.17354 l 27.18955,-27.19008 h 43.60768 v 23.54275 h 8.46666 v -23.54275 h 27.73113 c 2.21599,0 4.00027,-1.11511 4.00027,-2.5001 v -3.46646 c 0,-1.38499 -1.78428,-2.50011 -4.00027,-2.50011 z m 12.00495,8.46667 h 15.21612 l -15.21612,15.21613 z" /><path
       id="path10"
       style="fill:#000000;fill-rule:evenodd;stroke-width:21.4786;stroke-linecap:round;stroke-linejoin:round"
       d="m 336.54147,-200.46477 c -2.216,0 -3.99976,1.11512 -3.99976,2.50011 v 3.46646 c 0,1.38499 1.78376,2.5001 3.99976,2.5001 h 3.53828 v 152.400002 h -5.03793 c -1.385,0 -2.50011,1.11511 -2.50011,2.50011 v 3.46645 c 0,1.385 1.11511,2.50011 2.50011,2.50011 h 18.54253 c 1.385,0 2.50011,-1.11511 2.50011,-2.50011 v -3.46645 c 0,-1.385 -1.11511,-2.50011 -2.50011,-2.50011 h -5.03793 V -164.80802 l 27.18955,-27.19008 h 43.60768 v 23.54275 h 8.46666 v -23.54275 h 27.73113 c 2.21599,0 4.00027,-1.11511 4.00027,-2.5001 v -3.46646 c 0,-1.38499 -1.78428,-2.50011 -4.00027,-2.50011 z m 12.00495,8.46667 h 15.21612 l -15.21612,15.21613 z" /><g
       id="g21"><rect
         style="fill:none;fill-rule:evenodd;stroke-width:14.1817;stroke-linecap:round;stroke-linejoin:round"
         id="rect10"
         width="56.010967"
         height="100.27126"
         x="396.04141"
         y="-173.89973"
         inkscape:export-filename="sticker.svg"
         inkscape:export-xdpi="96.0195"
         inkscape:export-ydpi="96.0195" /><path
         id="path11"
         d="m 423.57698,-173.89969 a 14.863256,14.863256 0 0 0 -14.86331,14.86333 14.863256,14.863256 0 0 0 14.86331,14.86331 14.863256,14.863256 0 0 0 14.86331,-14.86331 14.863256,14.863256 0 0 0 -14.86331,-14.86333 z m 0,5.44434 a 9.4188377,9.4188377 0 0 1 9.41858,9.41899 9.4188377,9.4188377 0 0 1 -9.41858,9.41858 9.4188377,9.4188377 0 0 1 -9.41898,-9.41858 9.4188377,9.4188377 0 0 1 9.41898,-9.41899 z"
         class="man" /><rect
         style="fill:#000000;fill-rule:evenodd;stroke-width:12.0069;stroke-linecap:round;stroke-linejoin:round"
         id="rect11"
         width="8.4666662"
         height="52.916668"
         x="-427.8103"
         y="96.172005"
         transform="scale(-1)"
         ry="4.2333331"
         rx="4.2333331"
         class="man" /><rect
         style="fill:#000000;fill-rule:evenodd;stroke-width:10.3982;stroke-linecap:round;stroke-linejoin:round"
         id="rect18"
         width="8.4666662"
         height="39.6875"
         x="-207.01906"
         y="360.79382"
         transform="rotate(-135)"
         ry="4.2333331"
         class="man" /><rect
         style="fill:#000000;fill-rule:evenodd;stroke-width:10.3982;stroke-linecap:round;stroke-linejoin:round"
         id="rect19"
         width="8.4666662"
         height="39.6875"
         x="391.66705"
         y="-238.58751"
         transform="matrix(0.70710678,-0.70710678,-0.70710678,-0.70710678,0,0)"
         ry="4.2333331"
         class="man" /><rect
         style="fill:#000000;fill-rule:evenodd;stroke-width:10.3982;stroke-linecap:round;stroke-linejoin:round"
         id="rect20"
         width="8.4666662"
         height="39.6875"
         x="-230.84026"
         y="336.97263"
         transform="rotate(-135)"
         ry="4.2333331"
         class="man" /><rect
         style="fill:#000000;fill-rule:evenodd;stroke-width:10.3982;stroke-linecap:round;stroke-linejoin:round"
         id="rect21"
         width="8.4666662"
         height="39.6875"
         x="368.19348"
         y="-262.0611"
         transform="matrix(0.70710678,-0.70710678,-0.70710678,-0.70710678,0,0)"
         ry="4.2333331"
         class="man" /></g></g></svg>
